<svg width="399" height="108" viewBox="0 0 399 108" fill="none" xmlns="http://www.w3.org/2000/svg">
<path d="M16.1612 73.1513C17.3219 74.3121 18.6999 75.2328 20.2165 75.861C21.733 76.4892 23.3585 76.8125 25 76.8125C26.6415 76.8125 28.267 76.4892 29.7835 75.861C31.3001 75.2328 32.6781 74.3121 33.8388 73.1513L32.955 72.2675C31.9103 73.3121 30.6701 74.1408 29.3052 74.7061C27.9403 75.2715 26.4774 75.5625 25 75.5625C23.5226 75.5625 22.0597 75.2715 20.6948 74.7061C19.3299 74.1408 18.0897 73.3121 17.045 72.2675L16.1612 73.1513Z" fill="#EEF8FC"/>
<path d="M27.1981 20C31.4099 23.7487 32.5106 29.8921 29.8622 34.8698L27.7448 38.8496C26.1307 41.8835 26.0027 45.4914 27.3978 48.632L29.5547 53.4874C31.8218 58.5911 28.0858 64.3387 22.5013 64.3387C25.4116 59.8108 25.7099 54.0812 23.2855 49.2756L21.7897 46.3105C18.0425 38.8826 19.0315 29.9431 24.312 23.514L27.1981 20Z" fill="#EEF8FC"/>
<path d="M50 62.1875C50 65.706 49.3518 68.9468 48.0556 71.9097C46.6975 74.811 44.8457 77.3727 42.5 79.5949C40.1543 81.7554 37.4691 83.4529 34.4444 84.6875C31.4198 85.8603 28.2099 86.4468 24.8148 86.4468C20.2469 86.4468 16.0802 85.4282 12.3148 83.3912C8.54938 81.3542 5.55556 78.5147 3.33333 74.8727C1.11111 71.2307 0 67.0332 0 62.2801C0 57.7739 1.04938 53.7924 3.14815 50.3356C5.18519 46.8789 7.96296 44.3171 11.4815 42.6505L13.4259 48.7616C10.9568 50.1196 9.04321 52.0332 7.68518 54.5023C6.26543 56.9097 5.55556 59.5949 5.55556 62.5579C5.55556 65.7677 6.38889 68.6998 8.05556 71.3542C9.72222 74.0085 12.0062 76.1381 14.9074 77.7431C17.8086 79.2863 21.1111 80.0579 24.8148 80.0579C28.4568 80.0579 31.7593 79.2554 34.7222 77.6505C37.6852 76.0455 40.0617 73.9159 41.8519 71.2616C43.5802 68.6073 44.4444 65.6752 44.4444 62.4653C44.4444 60.3665 44.0741 58.3603 43.3333 56.4468C42.5926 54.4715 41.6049 52.7739 40.3704 51.3542C39.0741 49.8727 37.6852 48.885 36.2037 48.3912L38.0556 42.1875C40.3395 43.0517 42.4074 44.5023 44.2593 46.5394C46.0494 48.5147 47.4691 50.8603 48.5185 53.5764C49.5062 56.2307 50 59.1011 50 62.1875Z" fill="#EEF8FC"/>
<path d="M80.324 86.92C76.8893 86.92 73.7 86.276 70.756 84.988C67.8733 83.6387 65.3587 81.8293 63.212 79.56C61.1267 77.2293 59.5013 74.592 58.336 71.648C57.1707 68.6427 56.588 65.484 56.588 62.172C56.588 58.7373 57.1707 55.548 58.336 52.604C59.5013 49.5987 61.1573 46.9613 63.304 44.692C65.4507 42.3613 67.9653 40.552 70.848 39.264C73.792 37.9147 76.9813 37.24 80.416 37.24C83.8507 37.24 87.0093 37.9147 89.892 39.264C92.7747 40.552 95.2893 42.3613 97.436 44.692C99.5827 46.9613 101.239 49.5987 102.404 52.604C103.569 55.548 104.152 58.7373 104.152 62.172C104.152 65.484 103.569 68.6427 102.404 71.648C101.239 74.592 99.5827 77.2293 97.436 79.56C95.3507 81.8293 92.836 83.6387 89.892 84.988C87.0093 86.276 83.82 86.92 80.324 86.92ZM62.936 62.264C62.936 65.8213 63.7027 69.072 65.236 72.016C66.8307 74.8987 68.9467 77.1987 71.584 78.916C74.2213 80.572 77.1347 81.4 80.324 81.4C83.5133 81.4 86.4267 80.5413 89.064 78.824C91.7013 77.1067 93.8173 74.776 95.412 71.832C97.0067 68.8267 97.804 65.576 97.804 62.08C97.804 58.5227 97.0067 55.272 95.412 52.328C93.8173 49.384 91.7013 47.0533 89.064 45.336C86.4267 43.6187 83.5133 42.76 80.324 42.76C77.1347 42.76 74.2213 43.6493 71.584 45.428C69.008 47.2067 66.9227 49.568 65.328 52.512C63.7333 55.3947 62.936 58.6453 62.936 62.264ZM116.106 86V43.036H109.482V38.068H116.106V37.516C116.106 34.8173 116.658 32.2413 117.762 29.788C118.928 27.3347 120.614 25.3413 122.822 23.808C125.092 22.2747 127.852 21.508 131.102 21.508C133.249 21.508 135.181 21.784 136.898 22.336C138.677 22.8267 140.272 23.5013 141.682 24.36L139.658 29.052C138.493 28.2547 137.266 27.7027 135.978 27.396C134.752 27.0893 133.494 26.936 132.206 26.936C130.489 26.936 128.986 27.2733 127.698 27.948C126.472 28.5613 125.46 29.3893 124.662 30.432C123.865 31.4747 123.282 32.6093 122.914 33.836C122.546 35.0627 122.362 36.228 122.362 37.332V38.068H135.61V43.036H122.362V86H116.106ZM137.266 86V43.036H130.642V38.068H137.266V36.78C137.266 32.8547 137.849 29.4813 139.014 26.66C140.18 23.8387 141.805 21.692 143.89 20.22C145.976 18.6867 148.49 17.92 151.434 17.92C153.274 17.92 155.084 18.196 156.862 18.748C158.641 19.3 160.174 20.036 161.462 20.956L159.622 25.464C158.764 24.7893 157.69 24.268 156.402 23.9C155.176 23.532 153.918 23.348 152.63 23.348C149.748 23.348 147.509 24.4827 145.914 26.752C144.32 29.0213 143.522 32.3027 143.522 36.596V38.068H156.77V43.036H143.522V86H137.266ZM186.526 86.92C183.091 86.92 179.902 86.276 176.958 84.988C174.014 83.6387 171.468 81.8293 169.322 79.56C167.175 77.2293 165.488 74.5613 164.262 71.556C163.096 68.5507 162.514 65.3307 162.514 61.896C162.514 57.4187 163.526 53.3093 165.55 49.568C167.635 45.8267 170.487 42.852 174.106 40.644C177.724 38.3747 181.834 37.24 186.434 37.24C191.156 37.24 195.266 38.3747 198.762 40.644C202.319 42.9133 205.11 45.9187 207.134 49.66C209.158 53.34 210.17 57.388 210.17 61.804C210.17 62.2947 210.17 62.7853 210.17 63.276C210.17 63.7053 210.139 64.0427 210.078 64.288H169.046C169.352 67.7227 170.303 70.7893 171.898 73.488C173.554 76.1253 175.67 78.2413 178.246 79.836C180.883 81.3693 183.735 82.136 186.802 82.136C189.93 82.136 192.874 81.3387 195.634 79.744C198.455 78.1493 200.418 76.064 201.522 73.488L206.95 74.96C205.968 77.2293 204.466 79.284 202.442 81.124C200.418 82.964 198.026 84.4053 195.266 85.448C192.567 86.4293 189.654 86.92 186.526 86.92ZM168.862 59.78H204.282C204.036 56.284 203.086 53.2173 201.43 50.58C199.835 47.9427 197.719 45.888 195.082 44.416C192.506 42.8827 189.654 42.116 186.526 42.116C183.398 42.116 180.546 42.8827 177.97 44.416C175.394 45.888 173.278 47.9733 171.622 50.672C170.027 53.3093 169.107 56.3453 168.862 59.78ZM240.522 86.92C237.087 86.92 233.898 86.276 230.954 84.988C228.01 83.6387 225.465 81.8293 223.318 79.56C221.171 77.2293 219.485 74.5613 218.258 71.556C217.093 68.5507 216.51 65.3307 216.51 61.896C216.51 57.4187 217.522 53.3093 219.546 49.568C221.631 45.8267 224.483 42.852 228.102 40.644C231.721 38.3747 235.83 37.24 240.43 37.24C245.153 37.24 249.262 38.3747 252.758 40.644C256.315 42.9133 259.106 45.9187 261.13 49.66C263.154 53.34 264.166 57.388 264.166 61.804C264.166 62.2947 264.166 62.7853 264.166 63.276C264.166 63.7053 264.135 64.0427 264.074 64.288H223.042C223.349 67.7227 224.299 70.7893 225.894 73.488C227.55 76.1253 229.666 78.2413 232.242 79.836C234.879 81.3693 237.731 82.136 240.798 82.136C243.926 82.136 246.87 81.3387 249.63 79.744C252.451 78.1493 254.414 76.064 255.518 73.488L260.946 74.96C259.965 77.2293 258.462 79.284 256.438 81.124C254.414 82.964 252.022 84.4053 249.262 85.448C246.563 86.4293 243.65 86.92 240.522 86.92ZM222.858 59.78H258.278C258.033 56.284 257.082 53.2173 255.426 50.58C253.831 47.9427 251.715 45.888 249.078 44.416C246.502 42.8827 243.65 42.116 240.522 42.116C237.394 42.116 234.542 42.8827 231.966 44.416C229.39 45.888 227.274 47.9733 225.618 50.672C224.023 53.3093 223.103 56.3453 222.858 59.78ZM317.691 86.92C314.257 86.92 311.067 86.276 308.123 84.988C305.241 83.6387 302.726 81.8293 300.579 79.56C298.494 77.2293 296.869 74.592 295.703 71.648C294.538 68.6427 293.955 65.484 293.955 62.172C293.955 58.7373 294.538 55.548 295.703 52.604C296.869 49.5987 298.525 46.9613 300.671 44.692C302.818 42.3613 305.333 40.552 308.215 39.264C311.159 37.9147 314.349 37.24 317.783 37.24C321.218 37.24 324.377 37.9147 327.259 39.264C330.142 40.552 332.657 42.3613 334.803 44.692C336.95 46.9613 338.606 49.5987 339.771 52.604C340.937 55.548 341.519 58.7373 341.519 62.172C341.519 65.484 340.937 68.6427 339.771 71.648C338.606 74.592 336.95 77.2293 334.803 79.56C332.718 81.8293 330.203 83.6387 327.259 84.988C324.377 86.276 321.187 86.92 317.691 86.92ZM300.303 62.264C300.303 65.8213 301.07 69.072 302.603 72.016C304.198 74.8987 306.314 77.1987 308.951 78.916C311.589 80.572 314.502 81.4 317.691 81.4C320.881 81.4 323.794 80.5413 326.431 78.824C329.069 77.1067 331.185 74.776 332.779 71.832C334.374 68.8267 335.171 65.576 335.171 62.08C335.171 58.5227 334.374 55.272 332.779 52.328C331.185 49.384 329.069 47.0533 326.431 45.336C323.794 43.6187 320.881 42.76 317.691 42.76C314.502 42.76 311.589 43.6493 308.951 45.428C306.375 47.2067 304.29 49.568 302.695 52.512C301.101 55.3947 300.303 58.6453 300.303 62.264ZM392.278 86H386.022V59.228C386.022 53.5853 385.194 49.476 383.538 46.9C381.882 44.2627 379.275 42.944 375.718 42.944C373.265 42.944 370.842 43.5573 368.45 44.784C366.058 45.9493 363.942 47.5747 362.102 49.66C360.323 51.684 359.035 54.0147 358.238 56.652V86H351.982V38.068H357.686V48.924C358.974 46.5933 360.661 44.5693 362.746 42.852C364.831 41.0733 367.193 39.6933 369.83 38.712C372.467 37.7307 375.197 37.24 378.018 37.24C380.655 37.24 382.894 37.7307 384.734 38.712C386.574 39.6933 388.046 41.104 389.15 42.944C390.254 44.7227 391.051 46.9 391.542 49.476C392.033 51.9907 392.278 54.812 392.278 57.94V86Z" fill="#EEF8FC"/>
</svg>
