<svg width="800" height="1064" viewBox="0 0 800 1064" fill="none" xmlns="http://www.w3.org/2000/svg">
<path d="M258.579 850.421C277.15 868.993 299.198 883.725 323.463 893.776C347.728 903.827 373.736 909 400 909C426.264 909 452.272 903.827 476.537 893.776C500.802 883.725 522.85 868.993 541.421 850.421L527.279 836.279C510.565 852.994 490.722 866.252 468.883 875.298C447.044 884.344 423.638 889 400 889C376.362 889 352.956 884.344 331.117 875.298C309.278 866.252 289.435 852.994 272.721 836.279L258.579 850.421Z" fill="#22577A"/>
<path d="M435.17 0C502.558 59.9789 520.169 158.274 477.795 237.918L443.917 301.594C418.091 350.135 416.043 407.863 438.365 458.112L472.875 535.798C509.149 617.457 449.373 709.419 360.02 709.419C406.586 636.972 411.359 545.3 372.568 468.409L348.636 420.969C288.679 302.122 304.505 159.09 388.991 56.2243L435.17 0Z" fill="#22577A"/>
<path d="M800 675C800 731.296 789.63 783.148 768.889 830.556C747.16 876.975 717.531 917.963 680 953.518C642.469 988.086 599.506 1015.25 551.111 1035C502.716 1053.77 451.358 1063.15 397.037 1063.15C323.951 1063.15 257.284 1046.85 197.037 1014.26C136.79 981.667 88.8889 936.235 53.3333 877.963C17.7778 819.691 0 752.531 0 676.481C0 604.383 16.7901 540.679 50.3704 485.37C82.963 430.062 127.407 389.074 183.704 362.407L214.815 460.185C175.309 481.914 144.691 512.531 122.963 552.037C100.247 590.556 88.8889 633.518 88.8889 680.926C88.8889 732.284 102.222 779.198 128.889 821.667C155.556 864.136 192.099 898.21 238.519 923.889C284.938 948.58 337.778 960.926 397.037 960.926C455.309 960.926 508.148 948.086 555.556 922.407C602.963 896.728 640.988 862.654 669.63 820.185C697.284 777.716 711.111 730.802 711.111 679.444C711.111 645.864 705.185 613.765 693.333 583.148C681.481 551.543 665.679 524.383 645.926 501.667C625.185 477.963 602.963 462.16 579.259 454.259L608.889 355C645.432 368.827 678.518 392.037 708.148 424.63C736.79 456.235 759.506 493.765 776.296 537.222C792.099 579.691 800 625.617 800 675Z" fill="#22577A"/>
</svg>
